<?xml version="1.0" encoding="utf-8"?>
<!-- Generator: Adobe Illustrator 19.1.0, SVG Export Plug-In . SVG Version: 6.00 Build 0)  -->
<svg version="1.1" id="Layer_1" xmlns="http://www.w3.org/2000/svg" xmlns:xlink="http://www.w3.org/1999/xlink" x="0px" y="0px"
	 viewBox="155.1 48.3 189.9 103.2" style="enable-background:new 155.1 48.3 189.9 103.2;" xml:space="preserve">
<style type="text/css">
	.st0{fill:#757575;}
	.st1{fill:#4285F4;}
	.st2{fill:url(#SVGID_1_);}
	.st3{fill:url(#SVGID_2_);}
	.st4{fill:#FFCD40;}
	.st5{fill:url(#SVGID_3_);}
	.st6{fill:#DB4437;}
	.st7{fill:url(#SVGID_4_);}
	.st8{fill:url(#SVGID_5_);}
	.st9{fill:url(#SVGID_6_);}
	.st10{fill:#EEEEEE;}
	.st11{fill:#262626;fill-opacity:0.1;}
</style>
<g>
	<g id="Text_1_">
		<g>
			<path class="st0" d="M210.8,136h3.5c3.6,0,5.8,2.4,5.8,5.7c0,3.4-2.2,5.7-5.8,5.7h-3.5C210.8,147.5,210.8,136,210.8,136z
				 M214.3,146.1c2.6,0,4.3-1.6,4.3-4.3s-1.7-4.3-4.3-4.3h-2v8.6H214.3z"/>
			<path class="st0" d="M220.9,143.6c0-2.2,1.5-4.2,3.8-4.2s3.8,1.6,3.8,4.2c0,0.1,0,0.3,0,0.3h-6.2c0.1,1.7,1.3,2.6,2.5,2.6
				c0.9,0,1.7-0.4,2.1-1.3l1.3,0.5c-0.5,1.1-1.6,2.1-3.4,2.1C222.6,147.7,220.9,145.9,220.9,143.6z M224.8,140.7
				c-1.1,0-1.9,0.7-2.2,1.9h4.5C227.1,141.9,226.4,140.7,224.8,140.7z"/>
			<path class="st0" d="M228.8,139.6h1.6l2.3,6.1l0,0l2.3-6.1h1.6l-3.2,7.9h-1.5L228.8,139.6z"/>
			<path class="st0" d="M236.6,143.6c0-2.2,1.5-4.2,3.8-4.2s3.8,1.6,3.8,4.2c0,0.1,0,0.3,0,0.3H238c0.1,1.7,1.3,2.6,2.5,2.6
				c0.9,0,1.7-0.4,2.1-1.3l1.3,0.5c-0.5,1.1-1.6,2.1-3.4,2.1C238.2,147.7,236.6,145.9,236.6,143.6z M240.4,140.7
				c-1.1,0-1.9,0.7-2.2,1.9h4.5C242.8,141.9,242.1,140.7,240.4,140.7z"/>
			<path class="st0" d="M245.6,147.5V136h1.5v11.5H245.6z"/>
			<path class="st0" d="M256.2,143.6c0,2.4-1.7,4.2-4,4.2s-4-1.8-4-4.2s1.7-4.2,4-4.2S256.2,141.2,256.2,143.6z M254.8,143.6
				c0-1.8-1.2-2.8-2.6-2.8c-1.4,0-2.6,1-2.6,2.8s1.2,2.8,2.6,2.8C253.4,146.4,254.8,145.3,254.8,143.6z"/>
			<path class="st0" d="M258.8,146.4L258.8,146.4v1.1v3.4h-1.5v-11.3h1.4v1.1h0.1c0.4-0.7,1.4-1.3,2.7-1.3c2,0,3.7,1.8,3.7,4.2
				s-1.7,4.2-3.7,4.2C260.2,147.7,259.2,147.1,258.8,146.4z M263.8,143.6c0-1.8-1.2-2.8-2.5-2.8s-2.5,1-2.5,2.8s1.2,2.8,2.5,2.8
				C262.5,146.4,263.8,145.3,263.8,143.6z"/>
			<path class="st0" d="M266,143.6c0-2.2,1.5-4.2,3.8-4.2s3.8,1.6,3.8,4.2c0,0.1,0,0.3,0,0.3h-6.2c0.1,1.7,1.3,2.6,2.5,2.6
				c0.9,0,1.7-0.4,2.1-1.3l1.3,0.5c-0.5,1.1-1.6,2.1-3.4,2.1C267.5,147.7,266,145.9,266,143.6z M269.8,140.7c-1.1,0-1.9,0.7-2.2,1.9
				h4.5C272,141.9,271.5,140.7,269.8,140.7z"/>
			<path class="st0" d="M274.9,147.5v-7.9h1.4v1.3h0.1c0.3-0.9,1.5-1.5,2.3-1.5c0.5,0,0.8,0.1,1.1,0.2l-0.6,1.4
				c-0.2-0.1-0.5-0.1-0.8-0.1c-1,0-2,0.8-2,2.3v4.3H274.9L274.9,147.5z"/>
			<path class="st0" d="M279.9,145.5l1.3-0.5c0.4,1,1.2,1.5,2.1,1.5s1.6-0.4,1.6-1.1c0-0.4-0.2-0.8-1.1-1l-1.6-0.4
				c-0.7-0.2-2.1-0.8-2.1-2.2s1.5-2.3,3.1-2.3c1.4,0,2.5,0.6,3,1.8l-1.3,0.5c-0.3-0.7-1-1-1.8-1s-1.5,0.4-1.5,1c0,0.5,0.4,0.8,1,0.9
				l1.5,0.4c1.5,0.4,2.2,1.3,2.2,2.3c0,1.4-1.2,2.5-3.1,2.5C281.4,147.7,280.4,146.6,279.9,145.5z"/>
			<path class="st0" d="M289.9,141.7c0-3.4,2.6-6,5.9-6c1.7,0,3.2,0.7,4.2,1.9l-1,1c-0.8-1-1.9-1.5-3.2-1.5c-2.4,0-4.4,1.8-4.4,4.6
				s2,4.6,4.4,4.6c1.4,0,2.6-0.7,3.5-1.7l1,1c-1,1.2-2.6,2-4.5,2C292.4,147.7,289.9,145.1,289.9,141.7z"/>
			<path class="st0" d="M309,143.6c0,2.4-1.7,4.2-4,4.2s-4-1.8-4-4.2s1.7-4.2,4-4.2C307.4,139.4,309,141.2,309,143.6z M307.5,143.6
				c0-1.8-1.2-2.8-2.6-2.8s-2.6,1-2.6,2.8s1.2,2.8,2.6,2.8C306.4,146.4,307.5,145.3,307.5,143.6z"/>
			<path class="st0" d="M311.6,140.7L311.6,140.7c0.5-0.7,1.5-1.3,2.5-1.3c2,0,3,1.4,3,3.3v4.8h-1.5v-4.6c0-1.6-0.8-2.2-1.9-2.2
				c-1.3,0-2.1,1.2-2.1,2.4v4.4h-1.5v-7.9h1.4L311.6,140.7L311.6,140.7z"/>
			<path class="st0" d="M318.1,145.5l1.3-0.5c0.4,1,1.2,1.5,2.1,1.5s1.6-0.4,1.6-1.1c0-0.4-0.2-0.8-1.1-1l-1.6-0.4
				c-0.7-0.2-2.1-0.8-2.1-2.2s1.5-2.3,3.1-2.3c1.4,0,2.5,0.6,3,1.8l-1.3,0.5c-0.3-0.7-1-1-1.8-1s-1.5,0.4-1.5,1c0,0.5,0.4,0.8,1,0.9
				l1.5,0.4c1.5,0.4,2.2,1.3,2.2,2.3c0,1.4-1.2,2.5-3.1,2.5C319.8,147.7,318.6,146.6,318.1,145.5z"/>
			<path class="st0" d="M333.5,143.6c0,2.4-1.7,4.2-4,4.2s-4-1.8-4-4.2s1.7-4.2,4-4.2C331.9,139.4,333.5,141.2,333.5,143.6z
				 M332,143.6c0-1.8-1.2-2.8-2.6-2.8c-1.3,0-2.6,1-2.6,2.8s1.2,2.8,2.6,2.8C330.9,146.4,332,145.3,332,143.6z"/>
			<path class="st0" d="M334.8,147.5V136h1.5v11.5H334.8z"/>
			<path class="st0" d="M337.4,143.6c0-2.2,1.5-4.2,3.8-4.2s3.8,1.6,3.8,4.2c0,0.1,0,0.3,0,0.3h-6.2c0.1,1.7,1.3,2.6,2.5,2.6
				c0.9,0,1.7-0.4,2.1-1.3l1.3,0.5c-0.5,1.1-1.6,2.1-3.4,2.1C338.9,147.7,337.4,145.9,337.4,143.6z M341.1,140.7
				c-1.1,0-1.9,0.7-2.2,1.9h4.5C343.4,141.9,342.9,140.7,341.1,140.7z"/>
		</g>
		<g>
			<path class="st0" d="M155.1,141.2c0-3.6,3-6.5,6.6-6.5c2,0,3.4,0.8,4.5,1.8l-1.3,1.3c-0.8-0.7-1.8-1.3-3.2-1.3
				c-2.6,0-4.7,2.1-4.7,4.8c0,2.6,2.1,4.8,4.7,4.8c1.7,0,2.7-0.7,3.3-1.3c0.5-0.5,0.8-1.2,1-2.3h-4.3v-1.8h6
				c0.1,0.3,0.1,0.7,0.1,1.1c0,1.3-0.4,3-1.5,4.2s-2.6,1.8-4.6,1.8C158.1,147.7,155.1,144.8,155.1,141.2z"/>
			<path class="st0" d="M172.6,139.3c-2.3,0-4.2,1.8-4.2,4.2s1.9,4.2,4.2,4.2s4.2-1.8,4.2-4.2C176.9,141.1,175.1,139.3,172.6,139.3z
				 M172.6,146.1c-1.3,0-2.4-1.1-2.4-2.6s1.1-2.6,2.4-2.6s2.4,1,2.4,2.6C175.1,145,173.9,146.1,172.6,146.1z"/>
			<path class="st0" d="M181.9,139.3c-2.3,0-4.2,1.8-4.2,4.2s1.9,4.2,4.2,4.2s4.2-1.8,4.2-4.2C186.1,141.1,184.2,139.3,181.9,139.3z
				 M181.9,146.1c-1.3,0-2.4-1.1-2.4-2.6s1.1-2.6,2.4-2.6s2.4,1,2.4,2.6C184.2,145,183.1,146.1,181.9,146.1z"/>
			<path class="st0" d="M193.2,139.5v0.7h-0.1c-0.4-0.5-1.2-0.9-2.2-0.9c-2.1,0-4,1.9-4,4.2c0,2.4,1.9,4.2,4,4.2c1,0,1.8-0.4,2.2-1
				h0.1v0.6c0,1.6-0.9,2.5-2.3,2.5c-1.1,0-1.8-0.8-2.1-1.5l-1.6,0.7c0.5,1.1,1.7,2.5,3.7,2.5c2.2,0,4-1.3,4-4.4v-7.6
				C194.9,139.5,193.2,139.5,193.2,139.5z M191.1,146.1c-1.3,0-2.3-1.1-2.3-2.5c0-1.5,1.1-2.6,2.3-2.6c1.3,0,2.3,1.1,2.3,2.6
				C193.3,145,192.3,146.1,191.1,146.1z"/>
			<rect x="196.2" y="135.1" class="st0" width="1.9" height="12.4"/>
			<path class="st0" d="M203.2,146.1c-0.9,0-1.6-0.4-2-1.3l5.6-2.3l-0.2-0.5c-0.4-0.9-1.4-2.7-3.6-2.7c-2.2,0-4,1.7-4,4.2
				c0,2.4,1.8,4.2,4.2,4.2c1.9,0,3-1.2,3.5-1.9l-1.4-1C204.8,145.6,204.1,146.1,203.2,146.1z M203.1,140.9c0.7,0,1.4,0.4,1.6,0.9
				l-3.8,1.6C200.8,141.7,202.1,140.9,203.1,140.9z"/>
		</g>
	</g>
</g>
<g>
	<g>
		<path class="st1" d="M237.1,63.4h43.6l-7.2-12.1c-1.1-1.9-3-3-4.9-3h-36.8c-1.9,0-3.8,1.1-4.9,3L215.1,71l21.6,37.9L237.1,63.4
			L237.1,63.4z"/>
		
			<linearGradient id="SVGID_1_" gradientUnits="userSpaceOnUse" x1="279.1765" y1="295.394" x2="297.9987" y2="306.2869" gradientTransform="matrix(1 0 0 -1 -56 380)">
			<stop  offset="0" style="stop-color:#1A237E;stop-opacity:0.2"/>
			<stop  offset="0.66" style="stop-color:#1A237E;stop-opacity:0"/>
		</linearGradient>
		<path class="st2" d="M237.1,63.4h43.6l-7.2-12.1c-1.1-1.9-3-3-4.9-3h-36.8c-1.9,0-3.8,1.1-4.9,3L215.1,71l21.6,37.9L237.1,63.4
			L237.1,63.4z"/>
	</g>
	
		<linearGradient id="SVGID_2_" gradientUnits="userSpaceOnUse" x1="269.5552" y1="307.3948" x2="280.6638" y2="296.2862" gradientTransform="matrix(1 0 0 -1 -56 380)">
		<stop  offset="0" style="stop-color:#1A237E;stop-opacity:0.2"/>
		<stop  offset="1" style="stop-color:#1A237E;stop-opacity:4.000000e-02"/>
	</linearGradient>
	<polygon class="st3" points="215.1,71 226.1,81.9 224.6,86.9 	"/>
	<g>
		<path class="st4" d="M237.1,108.9l-22-37.9l-7.2,12.1c-1.1,1.9-1.1,3.8,0,5.7l18.6,32.2c1.1,1.9,3,3,5.3,3h22.7l21.6-37.9
			L237.1,108.9z"/>
		
			<linearGradient id="SVGID_3_" gradientUnits="userSpaceOnUse" x1="318.2193" y1="269.5944" x2="299.5658" y2="280.5158" gradientTransform="matrix(1 0 0 -1 -56 380)">
			<stop  offset="0" style="stop-color:#BF360C;stop-opacity:0.15"/>
			<stop  offset="0.66" style="stop-color:#BF360C;stop-opacity:0"/>
		</linearGradient>
		<path class="st5" d="M237.1,108.9l-22-37.9l-7.2,12.1c-1.1,1.9-1.1,3.8,0,5.7l18.6,32.2c1.1,1.9,3,3,5.3,3h22.7l21.6-37.9
			L237.1,108.9z"/>
	</g>
	<g>
		<path class="st6" d="M280.3,63.4h-43.2l39,22.7L254.5,124h14c1.9,0,3.8-1.1,4.9-3L292,88.8c1.1-1.9,1.1-3.8,0-5.7L280.3,63.4z"/>
		
			<linearGradient id="SVGID_4_" gradientUnits="userSpaceOnUse" x1="320.9625" y1="316.0742" x2="320.9625" y2="294.4419" gradientTransform="matrix(1 0 0 -1 -56 380)">
			<stop  offset="0" style="stop-color:#A52714;stop-opacity:0.2"/>
			<stop  offset="0.66" style="stop-color:#A52714;stop-opacity:0"/>
		</linearGradient>
		<path class="st7" d="M280.3,63.4h-43.2l39,22.7L254.5,124h14c1.9,0,3.8-1.1,4.9-3L292,88.8c1.1-1.9,1.1-3.8,0-5.7L280.3,63.4z"/>
	</g>
	
		<linearGradient id="SVGID_5_" gradientUnits="userSpaceOnUse" x1="306.4977" y1="294.7023" x2="334.3094" y2="266.8907" gradientTransform="matrix(1 0 0 -1 -56 380)">
		<stop  offset="0" style="stop-color:#3E2723;stop-opacity:0.15"/>
		<stop  offset="1" style="stop-color:#3E2723;stop-opacity:0"/>
	</linearGradient>
	<polygon class="st8" points="263.3,63.4 292.5,92.9 292.5,124 254.5,124 263.3,108.9 	"/>
	
		<linearGradient id="SVGID_6_" gradientUnits="userSpaceOnUse" x1="306.2" y1="271.2893" x2="306.2" y2="256.2407" gradientTransform="matrix(1 0 0 -1 -56 380)">
		<stop  offset="0" style="stop-color:#3E2723;stop-opacity:0.15"/>
		<stop  offset="4.040000e-02" style="stop-color:#472821;stop-opacity:0.1439"/>
		<stop  offset="0.2559" style="stop-color:#722D1A;stop-opacity:0.1116"/>
		<stop  offset="0.4652" style="stop-color:#933114;stop-opacity:8.020000e-02"/>
		<stop  offset="0.6636" style="stop-color:#AB340F;stop-opacity:5.050000e-02"/>
		<stop  offset="0.8467" style="stop-color:#BA350D;stop-opacity:2.300000e-02"/>
		<stop  offset="1" style="stop-color:#BF360C;stop-opacity:0"/>
	</linearGradient>
	<polygon class="st9" points="237.1,108.9 252.3,124 254.5,124 263.3,108.9 	"/>
	<path class="st10" d="M263.3,63.4h-26.2l-12.9,22.7l12.9,22.7h26.2l12.9-22.7L263.3,63.4z M250,97.5c-6.4,0-11.4-4.9-11.4-11.4
		c0-6.4,4.9-11.4,11.4-11.4c6.4,0,11.4,4.9,11.4,11.4S256.1,97.5,250,97.5z"/>
	<path class="st11" d="M250,74.7c6.1,0,11,4.9,11.4,11l0,0c0-6.4-4.9-11.4-11.4-11.4c-6.4,0-11.4,4.9-11.4,11.4l0,0
		C238.6,79.7,243.9,74.7,250,74.7z"/>
</g>
</svg>
