<?xml version="1.0" encoding="utf-8"?>
<!-- Generator: Adobe Illustrator 19.1.0, SVG Export Plug-In . SVG Version: 6.00 Build 0)  -->
<svg version="1.1" id="Layer_1" xmlns="http://www.w3.org/2000/svg" xmlns:xlink="http://www.w3.org/1999/xlink" x="0px" y="0px"
	 viewBox="-236.1 241 22.6 20" style="enable-background:new -236.1 241 22.6 20;" xml:space="preserve">
<style type="text/css">
	.st0{fill:#4285F4;}
	.st1{fill:url(#SVGID_1_);}
	.st2{fill:url(#SVGID_2_);}
	.st3{fill:#FFCD40;}
	.st4{fill:url(#SVGID_3_);}
	.st5{fill:#DB4437;}
	.st6{fill:url(#SVGID_4_);}
	.st7{fill:url(#SVGID_5_);}
	.st8{fill:url(#SVGID_6_);}
	.st9{fill:#EEEEEE;}
	.st10{fill:#262626;fill-opacity:0.1;}
</style>
<g>
	<path class="st0" d="M-228.2,245h11.5l-1.9-3.2c-0.3-0.5-0.8-0.8-1.3-0.8h-9.7c-0.5,0-1,0.3-1.3,0.8l-3.1,5.2l5.7,10L-228.2,245
		L-228.2,245z"/>
	
		<linearGradient id="SVGID_1_" gradientUnits="userSpaceOnUse" x1="-231.882" y1="724.593" x2="-226.9161" y2="721.7191" gradientTransform="matrix(1 0 0 1 0 -474)">
		<stop  offset="0" style="stop-color:#1A237E;stop-opacity:0.2"/>
		<stop  offset="0.66" style="stop-color:#1A237E;stop-opacity:0"/>
	</linearGradient>
	<path class="st1" d="M-228.2,245h11.5l-1.9-3.2c-0.3-0.5-0.8-0.8-1.3-0.8h-9.7c-0.5,0-1,0.3-1.3,0.8l-3.1,5.2l5.7,10L-228.2,245
		L-228.2,245z"/>
</g>
<linearGradient id="SVGID_2_" gradientUnits="userSpaceOnUse" x1="-234.4148" y1="721.4352" x2="-231.484" y2="724.366" gradientTransform="matrix(1 0 0 1 0 -474)">
	<stop  offset="0" style="stop-color:#1A237E;stop-opacity:0.2"/>
	<stop  offset="1" style="stop-color:#1A237E;stop-opacity:4.000000e-02"/>
</linearGradient>
<polygon class="st2" points="-234,247 -231.1,249.9 -231.5,251.2 "/>
<g>
	<path class="st3" d="M-228.2,257l-5.8-10l-1.9,3.2c-0.3,0.5-0.3,1,0,1.5l4.9,8.5c0.3,0.5,0.8,0.8,1.4,0.8h6l5.7-10L-228.2,257z"/>
	
		<linearGradient id="SVGID_3_" gradientUnits="userSpaceOnUse" x1="-221.5743" y1="731.4055" x2="-226.4957" y2="728.524" gradientTransform="matrix(1 0 0 1 0 -474)">
		<stop  offset="0" style="stop-color:#BF360C;stop-opacity:0.15"/>
		<stop  offset="0.66" style="stop-color:#BF360C;stop-opacity:0"/>
	</linearGradient>
	<path class="st4" d="M-228.2,257l-5.8-10l-1.9,3.2c-0.3,0.5-0.3,1,0,1.5l4.9,8.5c0.3,0.5,0.8,0.8,1.4,0.8h6l5.7-10L-228.2,257z"/>
</g>
<g>
	<path class="st5" d="M-216.8,245h-11.4l10.3,6l-5.7,10h3.7c0.5,0,1-0.3,1.3-0.8l4.9-8.5c0.3-0.5,0.3-1,0-1.5L-216.8,245z"/>
	
		<linearGradient id="SVGID_4_" gradientUnits="userSpaceOnUse" x1="-220.8375" y1="719.1458" x2="-220.8375" y2="724.8531" gradientTransform="matrix(1 0 0 1 0 -474)">
		<stop  offset="0" style="stop-color:#A52714;stop-opacity:0.2"/>
		<stop  offset="0.66" style="stop-color:#A52714;stop-opacity:0"/>
	</linearGradient>
	<path class="st6" d="M-216.8,245h-11.4l10.3,6l-5.7,10h3.7c0.5,0,1-0.3,1.3-0.8l4.9-8.5c0.3-0.5,0.3-1,0-1.5L-216.8,245z"/>
</g>
<linearGradient id="SVGID_5_" gradientUnits="userSpaceOnUse" x1="-224.6671" y1="724.7828" x2="-217.3295" y2="732.1204" gradientTransform="matrix(1 0 0 1 0 -474)">
	<stop  offset="0" style="stop-color:#3E2723;stop-opacity:0.15"/>
	<stop  offset="1" style="stop-color:#3E2723;stop-opacity:0"/>
</linearGradient>
<polygon class="st7" points="-221.3,245 -213.6,252.8 -213.6,261 -223.6,261 -221.3,257 "/>
<linearGradient id="SVGID_6_" gradientUnits="userSpaceOnUse" x1="-224.75" y1="730.9615" x2="-224.75" y2="734.9318" gradientTransform="matrix(1 0 0 1 0 -474)">
	<stop  offset="0" style="stop-color:#3E2723;stop-opacity:0.15"/>
	<stop  offset="4.040000e-02" style="stop-color:#472821;stop-opacity:0.1439"/>
	<stop  offset="0.2559" style="stop-color:#722D1A;stop-opacity:0.1116"/>
	<stop  offset="0.4652" style="stop-color:#933114;stop-opacity:8.020000e-02"/>
	<stop  offset="0.6636" style="stop-color:#AB340F;stop-opacity:5.050000e-02"/>
	<stop  offset="0.8467" style="stop-color:#BA350D;stop-opacity:2.300000e-02"/>
	<stop  offset="1" style="stop-color:#BF360C;stop-opacity:0"/>
</linearGradient>
<polygon class="st8" points="-228.2,257 -224.2,261 -223.6,261 -221.3,257 "/>
<path class="st9" d="M-221.3,245h-6.9l-3.4,6l3.4,6h6.9l3.4-6L-221.3,245z M-224.8,254c-1.7,0-3-1.3-3-3s1.3-3,3-3s3,1.3,3,3
	S-223.2,254-224.8,254z"/>
<path class="st10" d="M-224.8,248c1.6,0,2.9,1.3,3,2.9l0,0c0-1.7-1.3-3-3-3s-3,1.3-3,3l0,0C-227.8,249.3-226.4,248-224.8,248z"/>
</svg>
