<?xml version="1.0" encoding="utf-8"?>
<!-- Generator: Adobe Illustrator 19.1.0, SVG Export Plug-In . SVG Version: 6.00 Build 0)  -->
<svg version="1.1" id="Camada_1" xmlns="http://www.w3.org/2000/svg" xmlns:xlink="http://www.w3.org/1999/xlink" x="0px" y="0px"
	 viewBox="-226.7 232.1 42.6 37.9" style="enable-background:new -226.7 232.1 42.6 37.9;" xml:space="preserve">
<style type="text/css">
	.st0{fill:#FFFFFF;}
</style>
<g>
	<path class="st0" d="M-199.7,251c0-3.1-2.5-5.7-5.7-5.7c-3.1,0-5.7,2.5-5.7,5.7c0,3.1,2.5,5.7,5.7,5.7
		C-202.3,256.7-199.7,254.1-199.7,251"/>
	<path class="st0" d="M-184.6,249.1l-4.9-8.5c0,0,0-0.1-0.1-0.1l-3.8-6.5c-0.7-1.2-2-1.9-3.3-1.9h-17.5c-1.4,0-2.6,0.8-3.3,1.9
		l-4.9,8.5l0,0l4.4,7.6l6-10.4l20.8,0c0.7,0,1.3,0.3,1.6,0.9h-8.7l6,10.4l-6.6,11.4l0,0l-3.8,6.6c-0.3,0.6-0.9,0.9-1.6,0.9l4.4-7.6
		h-12l-6.1-10.5l0,0l-0.5-0.9l0,0l-3.8-6.6c-0.3-0.6-0.3-1.3,0-1.9l-3.8,6.6c-0.7,1.2-0.7,2.7,0,3.8l8.7,15.1c0.7,1.2,2,1.9,3.3,1.9
		h9.8c0.1,0,0.1,0,0.2,0h7.4c1.4,0,2.6-0.8,3.3-1.9l8.7-15.2C-183.9,251.7-184,250.2-184.6,249.1 M-214.2,237.2
		c-0.6,0-1.1-0.5-1.1-1.1c0-0.6,0.5-1.1,1.1-1.1c0.6,0,1.1,0.5,1.1,1.1C-213,236.7-213.5,237.2-214.2,237.2 M-196.1,237
		c-0.5,0.3-1.2,0.1-1.6-0.4c-0.3-0.5-0.1-1.2,0.4-1.6c0.5-0.3,1.2-0.1,1.6,0.4C-195.4,236-195.6,236.7-196.1,237 M-221.9,251.8
		c-0.3,0.5-1,0.7-1.6,0.4c-0.5-0.3-0.7-1-0.4-1.6c0.3-0.5,1-0.7,1.6-0.4C-221.8,250.5-221.6,251.2-221.9,251.8 M-213.6,267.3
		c-0.5,0.3-1.2,0.1-1.6-0.4c-0.3-0.5-0.1-1.2,0.4-1.6c0.5-0.3,1.2-0.1,1.6,0.4C-212.9,266.3-213,267-213.6,267.3 M-196.7,267.5
		c-0.6,0-1.1-0.5-1.1-1.1c0-0.6,0.5-1.1,1.1-1.1c0.6,0,1.1,0.5,1.1,1.1C-195.5,267-196,267.5-196.7,267.5 M-186.9,251.8
		c-0.3,0.5-1,0.7-1.6,0.4c-0.5-0.3-0.7-1-0.4-1.6c0.3-0.5,1-0.7,1.6-0.4S-186.6,251.2-186.9,251.8"/>
</g>
</svg>
